# xmcd
#
# Track frame offsets: 
#        150
#        9140
#        17843
#        28604
#        38924
#        47236
#        58862
#        67974
#        79099
#        88491
#        96834
#        104864
#
# Disc length: 1516 seconds
#
# Revision: 1
# Processed by: cddbd v1.5.2PL0 Copyright (c) Steve Scherf et al.
# Submitted via: ExactAudioCopy v1.0b1
#
DISCID=9d05ea0c
DTITLE=Johnny Cash - The Sound Of Johnny Cash
DYEAR=1962
DGENRE=Country
TTITLE0=Lost On The Desert
TTITLE1=Accidentally On Purpose
TTITLE2=In The Jailhouse Now
TTITLE3=Mr. Lonesome
TTITLE4=You Won't Have Far To Go
TTITLE5=In Them Old Cottonfields Back Home
TTITLE6=Delia's Gone
TTITLE7=I Forgot More Than You'll Ever Know About Her
TTITLE8=You Remembered Me
TTITLE9=I'm Free From The Chain Gang Now
TTITLE10=Let Me Down Easy
TTITLE11=Sing It Pretty Sue
EXTD=
EXTT0=
EXTT1=
EXTT2=
EXTT3=
EXTT4=
EXTT5=
EXTT6=
EXTT7=
EXTT8=
EXTT9=
EXTT10=
EXTT11=
PLAYORDER=
